<?xml version="1.0" encoding="UTF-8" standalone="no"?>
<!DOCTYPE svg PUBLIC "-//W3C//DTD SVG 1.1//EN"
 "http://www.w3.org/Graphics/SVG/1.1/DTD/svg11.dtd">
<!-- Generated by graphviz version 2.40.1 (20161225.0304)
 -->
<!-- Title: dependencies Pages: 1 -->
<svg width="504pt" height="284pt"
 viewBox="0.00 0.00 504.00 284.00" xmlns="http://www.w3.org/2000/svg" xmlns:xlink="http://www.w3.org/1999/xlink">
<g id="graph0" class="graph" transform="scale(1 1) rotate(0) translate(4 280)">
<title>dependencies</title>
<polygon fill="#ffffff" stroke="transparent" points="-4,4 -4,-280 500,-280 500,4 -4,4"/>
<text text-anchor="start" x="227.0091" y="-42.4" font-family="sans-serif" font-weight="bold" font-size="14.00" fill="#000000">Legend</text>
<polygon fill="#ffffb3" stroke="transparent" points="14,-10 14,-30 34,-30 34,-10 14,-10"/>
<text text-anchor="start" x="37.629" y="-15.4" font-family="sans-serif" font-size="14.00" fill="#000000"> &#160;Declarations</text>
<polygon fill="#8dd3c7" stroke="transparent" points="127,-10 127,-30 147,-30 147,-10 127,-10"/>
<text text-anchor="start" x="150.7251" y="-15.4" font-family="sans-serif" font-size="14.00" fill="#000000"> &#160;Module</text>
<polygon fill="#80b1d3" stroke="transparent" points="213,-10 213,-30 233,-30 233,-10 213,-10"/>
<text text-anchor="start" x="236.7812" y="-15.4" font-family="sans-serif" font-size="14.00" fill="#000000"> &#160;Bootstrap</text>
<polygon fill="#fdb462" stroke="transparent" points="310,-10 310,-30 330,-30 330,-10 310,-10"/>
<text text-anchor="start" x="333.6732" y="-15.4" font-family="sans-serif" font-size="14.00" fill="#000000"> &#160;Providers</text>
<polygon fill="#fb8072" stroke="transparent" points="406,-10 406,-30 426,-30 426,-10 406,-10"/>
<text text-anchor="start" x="429.7258" y="-15.4" font-family="sans-serif" font-size="14.00" fill="#000000"> &#160;Exports</text>
<g id="clust1" class="cluster">
<title>cluster_SharedModule</title>
<polygon fill="none" stroke="#000000" stroke-dasharray="1,5" points="36,-70 36,-268 460,-268 460,-70 36,-70"/>
</g>
<g id="clust2" class="cluster">
<title>cluster_SharedModule_declarations</title>
<polygon fill="none" stroke="#000000" points="50,-78 50,-130 446,-130 446,-78 50,-78"/>
</g>
<g id="clust7" class="cluster">
<title>cluster_SharedModule_exports</title>
<polygon fill="none" stroke="#000000" points="44,-208 44,-260 452,-260 452,-208 44,-208"/>
</g>
<!-- AlertComponent -->
<g id="node1" class="node">
<title>AlertComponent</title>
<polygon fill="#ffffb3" stroke="#000000" points="438.0954,-122 327.9046,-122 327.9046,-86 438.0954,-86 438.0954,-122"/>
<text text-anchor="middle" x="383" y="-99.8" font-family="Times,serif" font-size="14.00" fill="#000000">AlertComponent</text>
</g>
<!-- SharedModule -->
<g id="node4" class="node">
<title>SharedModule</title>
<polygon fill="#8dd3c7" stroke="#000000" points="295.4231,-187 292.4231,-191 271.4231,-191 268.4231,-187 196.5769,-187 196.5769,-151 295.4231,-151 295.4231,-187"/>
<text text-anchor="middle" x="246" y="-164.8" font-family="Times,serif" font-size="14.00" fill="#000000">SharedModule</text>
</g>
<!-- AlertComponent&#45;&gt;SharedModule -->
<g id="edge1" class="edge">
<title>AlertComponent&#45;&gt;SharedModule</title>
<path fill="none" stroke="#000000" d="M402.0992,-122.0225C402.0992,-139.3734 402.0992,-163 402.0992,-163 402.0992,-163 305.3908,-163 305.3908,-163"/>
<polygon fill="#000000" stroke="#000000" points="305.3908,-159.5001 295.3908,-163 305.3907,-166.5001 305.3908,-159.5001"/>
</g>
<!-- DropdownDirective -->
<g id="node2" class="node">
<title>DropdownDirective</title>
<polygon fill="#ffffb3" stroke="#000000" points="309.9566,-122 182.0434,-122 182.0434,-86 309.9566,-86 309.9566,-122"/>
<text text-anchor="middle" x="246" y="-99.8" font-family="Times,serif" font-size="14.00" fill="#000000">DropdownDirective</text>
</g>
<!-- DropdownDirective&#45;&gt;SharedModule -->
<g id="edge2" class="edge">
<title>DropdownDirective&#45;&gt;SharedModule</title>
<path fill="none" stroke="#000000" d="M246,-122.1061C246,-122.1061 246,-140.991 246,-140.991"/>
<polygon fill="#000000" stroke="#000000" points="242.5001,-140.9909 246,-150.991 249.5001,-140.991 242.5001,-140.9909"/>
</g>
<!-- LoadingSpinner -->
<g id="node3" class="node">
<title>LoadingSpinner</title>
<polygon fill="#ffffb3" stroke="#000000" points="164.2064,-122 57.7936,-122 57.7936,-86 164.2064,-86 164.2064,-122"/>
<text text-anchor="middle" x="111" y="-99.8" font-family="Times,serif" font-size="14.00" fill="#000000">LoadingSpinner</text>
</g>
<!-- LoadingSpinner&#45;&gt;SharedModule -->
<g id="edge3" class="edge">
<title>LoadingSpinner&#45;&gt;SharedModule</title>
<path fill="none" stroke="#000000" d="M127.201,-122.0225C127.201,-139.3734 127.201,-163 127.201,-163 127.201,-163 186.6506,-163 186.6506,-163"/>
<polygon fill="#000000" stroke="#000000" points="186.6506,-166.5001 196.6506,-163 186.6506,-159.5001 186.6506,-166.5001"/>
</g>
<!-- AlertComponent  -->
<g id="node5" class="node">
<title>AlertComponent </title>
<polygon fill="#fb8072" stroke="#000000" points="443.5961,-252 330.4039,-252 330.4039,-216 443.5961,-216 443.5961,-252"/>
<text text-anchor="middle" x="387" y="-229.8" font-family="Times,serif" font-size="14.00" fill="#000000">AlertComponent </text>
</g>
<!-- SharedModule&#45;&gt;AlertComponent  -->
<g id="edge4" class="edge">
<title>SharedModule&#45;&gt;AlertComponent </title>
<path fill="none" stroke="#000000" stroke-dasharray="5,2" d="M295.2166,-175C328.3979,-175 366.1508,-175 366.1508,-175 366.1508,-175 366.1508,-205.9775 366.1508,-205.9775"/>
<polygon fill="#000000" stroke="#000000" points="362.6509,-205.9774 366.1508,-215.9775 369.6509,-205.9775 362.6509,-205.9774"/>
</g>
<!-- DropdownDirective  -->
<g id="node6" class="node">
<title>DropdownDirective </title>
<polygon fill="#fb8072" stroke="#000000" points="311.9574,-252 180.0426,-252 180.0426,-216 311.9574,-216 311.9574,-252"/>
<text text-anchor="middle" x="246" y="-229.8" font-family="Times,serif" font-size="14.00" fill="#000000">DropdownDirective </text>
</g>
<!-- SharedModule&#45;&gt;DropdownDirective  -->
<g id="edge5" class="edge">
<title>SharedModule&#45;&gt;DropdownDirective </title>
<path fill="none" stroke="#000000" stroke-dasharray="5,2" d="M246,-187.1061C246,-187.1061 246,-205.991 246,-205.991"/>
<polygon fill="#000000" stroke="#000000" points="242.5001,-205.9909 246,-215.991 249.5001,-205.991 242.5001,-205.9909"/>
</g>
<!-- LoadingSpinner  -->
<g id="node7" class="node">
<title>LoadingSpinner </title>
<polygon fill="#fb8072" stroke="#000000" points="161.7066,-252 52.2934,-252 52.2934,-216 161.7066,-216 161.7066,-252"/>
<text text-anchor="middle" x="107" y="-229.8" font-family="Times,serif" font-size="14.00" fill="#000000">LoadingSpinner </text>
</g>
<!-- SharedModule&#45;&gt;LoadingSpinner  -->
<g id="edge6" class="edge">
<title>SharedModule&#45;&gt;LoadingSpinner </title>
<path fill="none" stroke="#000000" stroke-dasharray="5,2" d="M196.6025,-175C151.7438,-175 92.549,-175 92.549,-175 92.549,-175 92.549,-205.9775 92.549,-205.9775"/>
<polygon fill="#000000" stroke="#000000" points="89.0491,-205.9774 92.549,-215.9775 96.0491,-205.9775 89.0491,-205.9774"/>
</g>
</g>
</svg>
