<?xml version="1.0" encoding="UTF-8" standalone="no"?>
<!DOCTYPE svg PUBLIC "-//W3C//DTD SVG 1.1//EN"
 "http://www.w3.org/Graphics/SVG/1.1/DTD/svg11.dtd">
<!-- Generated by graphviz version 2.40.1 (20161225.0304)
 -->
<!-- Title: dependencies Pages: 1 -->
<svg width="504pt" height="211pt"
 viewBox="0.00 0.00 504.00 211.00" xmlns="http://www.w3.org/2000/svg" xmlns:xlink="http://www.w3.org/1999/xlink">
<g id="graph0" class="graph" transform="scale(1 1) rotate(0) translate(4 207)">
<title>dependencies</title>
<polygon fill="#ffffff" stroke="transparent" points="-4,4 -4,-207 500,-207 500,4 -4,4"/>
<text text-anchor="start" x="227.0091" y="-42.4" font-family="sans-serif" font-weight="bold" font-size="14.00" fill="#000000">Legend</text>
<polygon fill="#ffffb3" stroke="transparent" points="14,-10 14,-30 34,-30 34,-10 14,-10"/>
<text text-anchor="start" x="37.629" y="-15.4" font-family="sans-serif" font-size="14.00" fill="#000000"> &#160;Declarations</text>
<polygon fill="#8dd3c7" stroke="transparent" points="127,-10 127,-30 147,-30 147,-10 127,-10"/>
<text text-anchor="start" x="150.7251" y="-15.4" font-family="sans-serif" font-size="14.00" fill="#000000"> &#160;Module</text>
<polygon fill="#80b1d3" stroke="transparent" points="213,-10 213,-30 233,-30 233,-10 213,-10"/>
<text text-anchor="start" x="236.7812" y="-15.4" font-family="sans-serif" font-size="14.00" fill="#000000"> &#160;Bootstrap</text>
<polygon fill="#fdb462" stroke="transparent" points="310,-10 310,-30 330,-30 330,-10 310,-10"/>
<text text-anchor="start" x="333.6732" y="-15.4" font-family="sans-serif" font-size="14.00" fill="#000000"> &#160;Providers</text>
<polygon fill="#fb8072" stroke="transparent" points="406,-10 406,-30 426,-30 426,-10 406,-10"/>
<text text-anchor="start" x="429.7258" y="-15.4" font-family="sans-serif" font-size="14.00" fill="#000000"> &#160;Exports</text>
<g id="clust1" class="cluster">
<title>cluster_CoreModule</title>
<polygon fill="none" stroke="#000000" stroke-dasharray="1,5" points="54.5,-70 54.5,-195 441.5,-195 441.5,-70 54.5,-70"/>
</g>
<g id="clust6" class="cluster">
<title>cluster_CoreModule_providers</title>
<polygon fill="none" stroke="#000000" points="62.5,-78 62.5,-130 433.5,-130 433.5,-78 62.5,-78"/>
</g>
<!-- AuthInterceptorService -->
<g id="node1" class="node">
<title>AuthInterceptorService</title>
<ellipse fill="#fdb462" stroke="#000000" cx="323.5" cy="-104" rx="101.8225" ry="18"/>
<text text-anchor="middle" x="323.5" y="-99.8" font-family="Times,serif" font-size="14.00" fill="#000000">AuthInterceptorService</text>
</g>
<!-- CoreModule -->
<g id="node3" class="node">
<title>CoreModule</title>
<polygon fill="#8dd3c7" stroke="#000000" points="273.7619,-187 270.7619,-191 249.7619,-191 246.7619,-187 187.2381,-187 187.2381,-151 273.7619,-151 273.7619,-187"/>
<text text-anchor="middle" x="230.5" y="-164.8" font-family="Times,serif" font-size="14.00" fill="#000000">CoreModule</text>
</g>
<!-- AuthInterceptorService&#45;&gt;CoreModule -->
<g id="edge1" class="edge">
<title>AuthInterceptorService&#45;&gt;CoreModule</title>
<path fill="none" stroke="#000000" d="M247.8598,-116.226C247.8598,-116.226 247.8598,-140.683 247.8598,-140.683"/>
<polygon fill="#000000" stroke="#000000" points="244.3599,-140.683 247.8598,-150.683 251.3599,-140.683 244.3599,-140.683"/>
</g>
<!-- RecipeService -->
<g id="node2" class="node">
<title>RecipeService</title>
<ellipse fill="#fdb462" stroke="#000000" cx="137.5" cy="-104" rx="66.6094" ry="18"/>
<text text-anchor="middle" x="137.5" y="-99.8" font-family="Times,serif" font-size="14.00" fill="#000000">RecipeService</text>
</g>
<!-- RecipeService&#45;&gt;CoreModule -->
<g id="edge2" class="edge">
<title>RecipeService&#45;&gt;CoreModule</title>
<path fill="none" stroke="#000000" d="M195.7118,-113.038C195.7118,-113.038 195.7118,-140.9586 195.7118,-140.9586"/>
<polygon fill="#000000" stroke="#000000" points="192.2119,-140.9586 195.7118,-150.9586 199.2119,-140.9587 192.2119,-140.9586"/>
</g>
</g>
</svg>
