<?xml version="1.0" encoding="UTF-8" standalone="no"?>
<!DOCTYPE svg PUBLIC "-//W3C//DTD SVG 1.1//EN"
 "http://www.w3.org/Graphics/SVG/1.1/DTD/svg11.dtd">
<!-- Generated by graphviz version 2.40.1 (20161225.0304)
 -->
<!-- Title: dependencies Pages: 1 -->
<svg width="3195pt" height="366pt"
 viewBox="0.00 0.00 3195.00 366.00" xmlns="http://www.w3.org/2000/svg" xmlns:xlink="http://www.w3.org/1999/xlink">
<g id="graph0" class="graph" transform="scale(1 1) rotate(0) translate(4 362)">
<title>dependencies</title>
<polygon fill="#ffffff" stroke="transparent" points="-4,4 -4,-362 3191,-362 3191,4 -4,4"/>
<text text-anchor="start" x="1572.5091" y="-42.4" font-family="sans-serif" font-weight="bold" font-size="14.00" fill="#000000">Legend</text>
<polygon fill="#ffffb3" stroke="transparent" points="1359.5,-10 1359.5,-30 1379.5,-30 1379.5,-10 1359.5,-10"/>
<text text-anchor="start" x="1383.129" y="-15.4" font-family="sans-serif" font-size="14.00" fill="#000000"> &#160;Declarations</text>
<polygon fill="#8dd3c7" stroke="transparent" points="1472.5,-10 1472.5,-30 1492.5,-30 1492.5,-10 1472.5,-10"/>
<text text-anchor="start" x="1496.2251" y="-15.4" font-family="sans-serif" font-size="14.00" fill="#000000"> &#160;Module</text>
<polygon fill="#80b1d3" stroke="transparent" points="1558.5,-10 1558.5,-30 1578.5,-30 1578.5,-10 1558.5,-10"/>
<text text-anchor="start" x="1582.2812" y="-15.4" font-family="sans-serif" font-size="14.00" fill="#000000"> &#160;Bootstrap</text>
<polygon fill="#fdb462" stroke="transparent" points="1655.5,-10 1655.5,-30 1675.5,-30 1675.5,-10 1655.5,-10"/>
<text text-anchor="start" x="1679.1732" y="-15.4" font-family="sans-serif" font-size="14.00" fill="#000000"> &#160;Providers</text>
<polygon fill="#fb8072" stroke="transparent" points="1751.5,-10 1751.5,-30 1771.5,-30 1771.5,-10 1751.5,-10"/>
<text text-anchor="start" x="1775.2258" y="-15.4" font-family="sans-serif" font-size="14.00" fill="#000000"> &#160;Exports</text>
<g id="clust1" class="cluster">
<title>cluster_AppModule</title>
<polygon fill="none" stroke="#000000" stroke-dasharray="1,5" points="844,-146 844,-350 1496,-350 1496,-146 844,-146"/>
</g>
<g id="clust2" class="cluster">
<title>cluster_AppModule_declarations</title>
<polygon fill="none" stroke="#000000" points="1226,-154 1226,-206 1488,-206 1488,-154 1226,-154"/>
</g>
<g id="clust5" class="cluster">
<title>cluster_AppModule_imports</title>
<polygon fill="none" stroke="#000000" points="852,-154 852,-206 1218,-206 1218,-154 852,-154"/>
</g>
<g id="clust7" class="cluster">
<title>cluster_AppModule_bootstrap</title>
<polygon fill="none" stroke="#000000" points="1084,-290 1084,-342 1208,-342 1208,-290 1084,-290"/>
</g>
<g id="clust15" class="cluster">
<title>cluster_AuthModule</title>
<polygon fill="none" stroke="#000000" stroke-dasharray="1,5" points="1504,-146 1504,-274 1646,-274 1646,-146 1504,-146"/>
</g>
<g id="clust16" class="cluster">
<title>cluster_AuthModule_declarations</title>
<polygon fill="none" stroke="#000000" points="1512,-154 1512,-206 1638,-206 1638,-154 1512,-154"/>
</g>
<g id="clust22" class="cluster">
<title>cluster_CoreModule</title>
<polygon fill="none" stroke="#000000" stroke-dasharray="1,5" points="844,-70 844,-138 1231,-138 1231,-70 844,-70"/>
</g>
<g id="clust27" class="cluster">
<title>cluster_CoreModule_providers</title>
<polygon fill="none" stroke="#000000" points="852,-78 852,-130 1223,-130 1223,-78 852,-78"/>
</g>
<g id="clust28" class="cluster">
<title>cluster_RecipesModule</title>
<polygon fill="none" stroke="#000000" stroke-dasharray="1,5" points="1654,-146 1654,-274 2806,-274 2806,-146 1654,-146"/>
</g>
<g id="clust29" class="cluster">
<title>cluster_RecipesModule_declarations</title>
<polygon fill="none" stroke="#000000" points="1834,-154 1834,-206 2798,-206 2798,-154 1834,-154"/>
</g>
<g id="clust36" class="cluster">
<title>cluster_RecipesModule_imports</title>
<polygon fill="none" stroke="#000000" points="1662,-154 1662,-206 1826,-206 1826,-154 1662,-154"/>
</g>
<g id="clust46" class="cluster">
<title>cluster_SharedModule</title>
<polygon fill="none" stroke="#000000" stroke-dasharray="1,5" points="8,-214 8,-282 836,-282 836,-214 8,-214"/>
</g>
<g id="clust47" class="cluster">
<title>cluster_SharedModule_declarations</title>
<polygon fill="none" stroke="#000000" points="432,-222 432,-274 828,-274 828,-222 432,-222"/>
</g>
<g id="clust52" class="cluster">
<title>cluster_SharedModule_exports</title>
<polygon fill="none" stroke="#000000" points="16,-222 16,-274 424,-274 424,-222 16,-222"/>
</g>
<g id="clust55" class="cluster">
<title>cluster_ShoppingListModule</title>
<polygon fill="none" stroke="#000000" stroke-dasharray="1,5" points="2814,-146 2814,-274 3179,-274 3179,-146 2814,-146"/>
</g>
<g id="clust56" class="cluster">
<title>cluster_ShoppingListModule_declarations</title>
<polygon fill="none" stroke="#000000" points="2822,-154 2822,-206 3171,-206 3171,-154 2822,-154"/>
</g>
<!-- AppComponent -->
<g id="node1" class="node">
<title>AppComponent</title>
<polygon fill="#ffffb3" stroke="#000000" points="1479.9399,-198 1374.0601,-198 1374.0601,-162 1479.9399,-162 1479.9399,-198"/>
<text text-anchor="middle" x="1427" y="-175.8" font-family="Times,serif" font-size="14.00" fill="#000000">AppComponent</text>
</g>
<!-- AppModule -->
<g id="node3" class="node">
<title>AppModule</title>
<polygon fill="#8dd3c7" stroke="#000000" points="1187.6571,-266 1184.6571,-270 1163.6571,-270 1160.6571,-266 1104.3429,-266 1104.3429,-230 1187.6571,-230 1187.6571,-266"/>
<text text-anchor="middle" x="1146" y="-243.8" font-family="Times,serif" font-size="14.00" fill="#000000">AppModule</text>
</g>
<!-- AppComponent&#45;&gt;AppModule -->
<g id="edge1" class="edge">
<title>AppComponent&#45;&gt;AppModule</title>
<path fill="none" stroke="#000000" d="M1427,-198.2921C1427,-220.2057 1427,-254 1427,-254 1427,-254 1197.7651,-254 1197.7651,-254"/>
<polygon fill="#000000" stroke="#000000" points="1197.7652,-250.5001 1187.7651,-254 1197.7651,-257.5001 1197.7652,-250.5001"/>
</g>
<!-- HeaderComponent -->
<g id="node2" class="node">
<title>HeaderComponent</title>
<polygon fill="#ffffb3" stroke="#000000" points="1355.7437,-198 1234.2563,-198 1234.2563,-162 1355.7437,-162 1355.7437,-198"/>
<text text-anchor="middle" x="1295" y="-175.8" font-family="Times,serif" font-size="14.00" fill="#000000">HeaderComponent</text>
</g>
<!-- HeaderComponent&#45;&gt;AppModule -->
<g id="edge2" class="edge">
<title>HeaderComponent&#45;&gt;AppModule</title>
<path fill="none" stroke="#000000" d="M1295,-198.2667C1295,-216.5552 1295,-242 1295,-242 1295,-242 1197.9013,-242 1197.9013,-242"/>
<polygon fill="#000000" stroke="#000000" points="1197.9014,-238.5001 1187.9013,-242 1197.9013,-245.5001 1197.9014,-238.5001"/>
</g>
<!-- AppComponent  -->
<g id="node7" class="node">
<title>AppComponent </title>
<polygon fill="#80b1d3" stroke="#000000" points="1200.439,-334 1091.561,-334 1091.561,-298 1200.439,-298 1200.439,-334"/>
<text text-anchor="middle" x="1146" y="-311.8" font-family="Times,serif" font-size="14.00" fill="#000000">AppComponent </text>
</g>
<!-- AppModule&#45;&gt;AppComponent  -->
<g id="edge6" class="edge">
<title>AppModule&#45;&gt;AppComponent </title>
<path fill="none" stroke="#000000" stroke-dasharray="1,5" d="M1146,-266.2228C1146,-266.2228 1146,-287.7269 1146,-287.7269"/>
<polygon fill="#000000" stroke="#000000" points="1142.5001,-287.7269 1146,-297.7269 1149.5001,-287.727 1142.5001,-287.7269"/>
</g>
<!-- AppRoutingModule -->
<g id="node4" class="node">
<title>AppRoutingModule</title>
<polygon fill="#8dd3c7" stroke="#000000" points="1210.2744,-198 1207.2744,-202 1186.2744,-202 1183.2744,-198 1081.7256,-198 1081.7256,-162 1210.2744,-162 1210.2744,-198"/>
<text text-anchor="middle" x="1146" y="-175.8" font-family="Times,serif" font-size="14.00" fill="#000000">AppRoutingModule</text>
</g>
<!-- AppRoutingModule&#45;&gt;AppModule -->
<g id="edge3" class="edge">
<title>AppRoutingModule&#45;&gt;AppModule</title>
<path fill="none" stroke="#000000" d="M1146,-198.2228C1146,-198.2228 1146,-219.7269 1146,-219.7269"/>
<polygon fill="#000000" stroke="#000000" points="1142.5001,-219.7269 1146,-229.7269 1149.5001,-219.727 1142.5001,-219.7269"/>
</g>
<!-- CoreModule -->
<g id="node5" class="node">
<title>CoreModule</title>
<polygon fill="#8dd3c7" stroke="#000000" points="1063.2619,-198 1060.2619,-202 1039.2619,-202 1036.2619,-198 976.7381,-198 976.7381,-162 1063.2619,-162 1063.2619,-198"/>
<text text-anchor="middle" x="1020" y="-175.8" font-family="Times,serif" font-size="14.00" fill="#000000">CoreModule</text>
</g>
<!-- CoreModule&#45;&gt;AppModule -->
<g id="edge4" class="edge">
<title>CoreModule&#45;&gt;AppModule</title>
<path fill="none" stroke="#000000" d="M1020,-198.2228C1020,-218.3652 1020,-248 1020,-248 1020,-248 1094.0438,-248 1094.0438,-248"/>
<polygon fill="#000000" stroke="#000000" points="1094.0439,-251.5001 1104.0438,-248 1094.0438,-244.5001 1094.0439,-251.5001"/>
</g>
<!-- SharedModule -->
<g id="node6" class="node">
<title>SharedModule</title>
<polygon fill="#8dd3c7" stroke="#000000" points="958.4231,-198 955.4231,-202 934.4231,-202 931.4231,-198 859.5769,-198 859.5769,-162 958.4231,-162 958.4231,-198"/>
<text text-anchor="middle" x="909" y="-175.8" font-family="Times,serif" font-size="14.00" fill="#000000">SharedModule</text>
</g>
<!-- SharedModule&#45;&gt;AppModule -->
<g id="edge5" class="edge">
<title>SharedModule&#45;&gt;AppModule</title>
<path fill="none" stroke="#000000" d="M941.8074,-198.2479C941.8074,-221.0179 941.8074,-257 941.8074,-257 941.8074,-257 1094.1858,-257 1094.1858,-257"/>
<polygon fill="#000000" stroke="#000000" points="1094.1859,-260.5001 1104.1858,-257 1094.1858,-253.5001 1094.1859,-260.5001"/>
</g>
<!-- AuthModule -->
<g id="node9" class="node">
<title>AuthModule</title>
<polygon fill="#8dd3c7" stroke="#000000" points="1608.5482,-266 1605.5482,-270 1584.5482,-270 1581.5482,-266 1521.4518,-266 1521.4518,-230 1608.5482,-230 1608.5482,-266"/>
<text text-anchor="middle" x="1565" y="-243.8" font-family="Times,serif" font-size="14.00" fill="#000000">AuthModule</text>
</g>
<!-- SharedModule&#45;&gt;AuthModule -->
<g id="edge8" class="edge">
<title>SharedModule&#45;&gt;AuthModule</title>
<path fill="none" stroke="#000000" d="M876.1926,-198.0555C876.1926,-209.439 876.1926,-222 876.1926,-222 876.1926,-222 1550.4088,-222 1550.4088,-222 1550.4088,-222 1550.4088,-222.7942 1550.4088,-222.7942"/>
<polygon fill="#000000" stroke="#000000" points="1546.909,-219.9421 1550.4088,-229.9421 1553.909,-219.9422 1546.909,-219.9421"/>
</g>
<!-- RecipesModule -->
<g id="node18" class="node">
<title>RecipesModule</title>
<polygon fill="#8dd3c7" stroke="#000000" points="2191.8655,-266 2188.8655,-270 2167.8655,-270 2164.8655,-266 2088.1345,-266 2088.1345,-230 2191.8655,-230 2191.8655,-266"/>
<text text-anchor="middle" x="2140" y="-243.8" font-family="Times,serif" font-size="14.00" fill="#000000">RecipesModule</text>
</g>
<!-- SharedModule&#45;&gt;RecipesModule -->
<g id="edge18" class="edge">
<title>SharedModule&#45;&gt;RecipesModule</title>
<path fill="none" stroke="#000000" d="M892.5963,-198.1944C892.5963,-206.2782 892.5963,-214 892.5963,-214 892.5963,-214 2102.8186,-214 2102.8186,-214 2102.8186,-214 2102.8186,-219.8056 2102.8186,-219.8056"/>
<polygon fill="#000000" stroke="#000000" points="2099.3187,-219.8055 2102.8186,-229.8056 2106.3187,-219.8056 2099.3187,-219.8055"/>
</g>
<!-- AlertComponent  -->
<g id="node23" class="node">
<title>AlertComponent </title>
<polygon fill="#fb8072" stroke="#000000" points="137.5961,-266 24.4039,-266 24.4039,-230 137.5961,-230 137.5961,-266"/>
<text text-anchor="middle" x="81" y="-243.8" font-family="Times,serif" font-size="14.00" fill="#000000">AlertComponent </text>
</g>
<!-- SharedModule&#45;&gt;AlertComponent  -->
<g id="edge22" class="edge">
<title>SharedModule&#45;&gt;AlertComponent </title>
<path fill="none" stroke="#000000" stroke-dasharray="5,2" d="M859.6845,-168C681.4314,-168 81,-168 81,-168 81,-168 81,-219.8468 81,-219.8468"/>
<polygon fill="#000000" stroke="#000000" points="77.5001,-219.8467 81,-229.8468 84.5001,-219.8468 77.5001,-219.8467"/>
</g>
<!-- DropdownDirective  -->
<g id="node24" class="node">
<title>DropdownDirective </title>
<polygon fill="#fb8072" stroke="#000000" points="415.9574,-266 284.0426,-266 284.0426,-230 415.9574,-230 415.9574,-266"/>
<text text-anchor="middle" x="350" y="-243.8" font-family="Times,serif" font-size="14.00" fill="#000000">DropdownDirective </text>
</g>
<!-- SharedModule&#45;&gt;DropdownDirective  -->
<g id="edge23" class="edge">
<title>SharedModule&#45;&gt;DropdownDirective </title>
<path fill="none" stroke="#000000" stroke-dasharray="5,2" d="M859.3925,-180C722.5842,-180 350,-180 350,-180 350,-180 350,-219.7772 350,-219.7772"/>
<polygon fill="#000000" stroke="#000000" points="346.5001,-219.7772 350,-229.7772 353.5001,-219.7773 346.5001,-219.7772"/>
</g>
<!-- LoadingSpinner  -->
<g id="node25" class="node">
<title>LoadingSpinner </title>
<polygon fill="#fb8072" stroke="#000000" points="265.7066,-266 156.2934,-266 156.2934,-230 265.7066,-230 265.7066,-266"/>
<text text-anchor="middle" x="211" y="-243.8" font-family="Times,serif" font-size="14.00" fill="#000000">LoadingSpinner </text>
</g>
<!-- SharedModule&#45;&gt;LoadingSpinner  -->
<g id="edge24" class="edge">
<title>SharedModule&#45;&gt;LoadingSpinner </title>
<path fill="none" stroke="#000000" stroke-dasharray="5,2" d="M859.6399,-174C700.4674,-174 211,-174 211,-174 211,-174 211,-219.7079 211,-219.7079"/>
<polygon fill="#000000" stroke="#000000" points="207.5001,-219.7078 211,-229.7079 214.5001,-219.7079 207.5001,-219.7078"/>
</g>
<!-- ShoppingListModule -->
<g id="node28" class="node">
<title>ShoppingListModule</title>
<polygon fill="#8dd3c7" stroke="#000000" points="2975.5014,-266 2972.5014,-270 2951.5014,-270 2948.5014,-266 2840.4986,-266 2840.4986,-230 2975.5014,-230 2975.5014,-266"/>
<text text-anchor="middle" x="2908" y="-243.8" font-family="Times,serif" font-size="14.00" fill="#000000">ShoppingListModule</text>
</g>
<!-- SharedModule&#45;&gt;ShoppingListModule -->
<g id="edge27" class="edge">
<title>SharedModule&#45;&gt;ShoppingListModule</title>
<path fill="none" stroke="#000000" d="M909,-198.0579C909,-202.4945 909,-206 909,-206 909,-206 2885.4998,-206 2885.4998,-206 2885.4998,-206 2885.4998,-219.9445 2885.4998,-219.9445"/>
<polygon fill="#000000" stroke="#000000" points="2881.9999,-219.9444 2885.4998,-229.9445 2888.9999,-219.9445 2881.9999,-219.9444"/>
</g>
<!-- AuthComponent -->
<g id="node8" class="node">
<title>AuthComponent</title>
<polygon fill="#ffffb3" stroke="#000000" points="1629.8301,-198 1520.1699,-198 1520.1699,-162 1629.8301,-162 1629.8301,-198"/>
<text text-anchor="middle" x="1575" y="-175.8" font-family="Times,serif" font-size="14.00" fill="#000000">AuthComponent</text>
</g>
<!-- AuthComponent&#45;&gt;AuthModule -->
<g id="edge7" class="edge">
<title>AuthComponent&#45;&gt;AuthModule</title>
<path fill="none" stroke="#000000" d="M1579.5912,-198.2228C1579.5912,-198.2228 1579.5912,-219.7269 1579.5912,-219.7269"/>
<polygon fill="#000000" stroke="#000000" points="1576.0913,-219.7269 1579.5912,-229.7269 1583.0913,-219.727 1576.0913,-219.7269"/>
</g>
<!-- AuthInterceptorService -->
<g id="node10" class="node">
<title>AuthInterceptorService</title>
<ellipse fill="#fdb462" stroke="#000000" cx="1113" cy="-104" rx="101.8225" ry="18"/>
<text text-anchor="middle" x="1113" y="-99.8" font-family="Times,serif" font-size="14.00" fill="#000000">AuthInterceptorService</text>
</g>
<!-- AuthInterceptorService&#45;&gt;CoreModule -->
<g id="edge9" class="edge">
<title>AuthInterceptorService&#45;&gt;CoreModule</title>
<path fill="none" stroke="#000000" d="M1037.3598,-116.2107C1037.3598,-116.2107 1037.3598,-151.864 1037.3598,-151.864"/>
<polygon fill="#000000" stroke="#000000" points="1033.8599,-151.864 1037.3598,-161.864 1040.8599,-151.864 1033.8599,-151.864"/>
</g>
<!-- RecipeService -->
<g id="node11" class="node">
<title>RecipeService</title>
<ellipse fill="#fdb462" stroke="#000000" cx="927" cy="-104" rx="66.6094" ry="18"/>
<text text-anchor="middle" x="927" y="-99.8" font-family="Times,serif" font-size="14.00" fill="#000000">RecipeService</text>
</g>
<!-- RecipeService&#45;&gt;CoreModule -->
<g id="edge10" class="edge">
<title>RecipeService&#45;&gt;CoreModule</title>
<path fill="none" stroke="#000000" d="M985.2118,-113.0166C985.2118,-113.0166 985.2118,-151.7357 985.2118,-151.7357"/>
<polygon fill="#000000" stroke="#000000" points="981.7119,-151.7356 985.2118,-161.7357 988.7119,-151.7357 981.7119,-151.7356"/>
</g>
<!-- RecipeDetailComponent -->
<g id="node12" class="node">
<title>RecipeDetailComponent</title>
<polygon fill="#ffffb3" stroke="#000000" points="2790.4115,-198 2635.5885,-198 2635.5885,-162 2790.4115,-162 2790.4115,-198"/>
<text text-anchor="middle" x="2713" y="-175.8" font-family="Times,serif" font-size="14.00" fill="#000000">RecipeDetailComponent</text>
</g>
<!-- RecipeDetailComponent&#45;&gt;RecipesModule -->
<g id="edge11" class="edge">
<title>RecipeDetailComponent&#45;&gt;RecipesModule</title>
<path fill="none" stroke="#000000" d="M2713,-198.2479C2713,-221.0179 2713,-257 2713,-257 2713,-257 2202.1145,-257 2202.1145,-257"/>
<polygon fill="#000000" stroke="#000000" points="2202.1145,-253.5001 2192.1145,-257 2202.1144,-260.5001 2202.1145,-253.5001"/>
</g>
<!-- RecipeEditComponent -->
<g id="node13" class="node">
<title>RecipeEditComponent</title>
<polygon fill="#ffffb3" stroke="#000000" points="2617.5379,-198 2474.4621,-198 2474.4621,-162 2617.5379,-162 2617.5379,-198"/>
<text text-anchor="middle" x="2546" y="-175.8" font-family="Times,serif" font-size="14.00" fill="#000000">RecipeEditComponent</text>
</g>
<!-- RecipeEditComponent&#45;&gt;RecipesModule -->
<g id="edge12" class="edge">
<title>RecipeEditComponent&#45;&gt;RecipesModule</title>
<path fill="none" stroke="#000000" d="M2546,-198.2228C2546,-218.3652 2546,-248 2546,-248 2546,-248 2202.2462,-248 2202.2462,-248"/>
<polygon fill="#000000" stroke="#000000" points="2202.2463,-244.5001 2192.2462,-248 2202.2462,-251.5001 2202.2463,-244.5001"/>
</g>
<!-- RecipeItemComponent -->
<g id="node14" class="node">
<title>RecipeItemComponent</title>
<polygon fill="#ffffb3" stroke="#000000" points="2455.8599,-198 2310.1401,-198 2310.1401,-162 2455.8599,-162 2455.8599,-198"/>
<text text-anchor="middle" x="2383" y="-175.8" font-family="Times,serif" font-size="14.00" fill="#000000">RecipeItemComponent</text>
</g>
<!-- RecipeItemComponent&#45;&gt;RecipesModule -->
<g id="edge13" class="edge">
<title>RecipeItemComponent&#45;&gt;RecipesModule</title>
<path fill="none" stroke="#000000" d="M2383,-198.0225C2383,-215.3734 2383,-239 2383,-239 2383,-239 2202.1296,-239 2202.1296,-239"/>
<polygon fill="#000000" stroke="#000000" points="2202.1296,-235.5001 2192.1296,-239 2202.1296,-242.5001 2202.1296,-235.5001"/>
</g>
<!-- RecipeListComponent -->
<g id="node15" class="node">
<title>RecipeListComponent</title>
<polygon fill="#ffffb3" stroke="#000000" points="2291.9818,-198 2150.0182,-198 2150.0182,-162 2291.9818,-162 2291.9818,-198"/>
<text text-anchor="middle" x="2221" y="-175.8" font-family="Times,serif" font-size="14.00" fill="#000000">RecipeListComponent</text>
</g>
<!-- RecipeListComponent&#45;&gt;RecipesModule -->
<g id="edge14" class="edge">
<title>RecipeListComponent&#45;&gt;RecipesModule</title>
<path fill="none" stroke="#000000" d="M2170.9709,-198.2228C2170.9709,-198.2228 2170.9709,-219.7269 2170.9709,-219.7269"/>
<polygon fill="#000000" stroke="#000000" points="2167.471,-219.7269 2170.9709,-229.7269 2174.471,-219.727 2167.471,-219.7269"/>
</g>
<!-- RecipeStartComponent -->
<g id="node16" class="node">
<title>RecipeStartComponent</title>
<polygon fill="#ffffb3" stroke="#000000" points="2132.1428,-198 1985.8572,-198 1985.8572,-162 2132.1428,-162 2132.1428,-198"/>
<text text-anchor="middle" x="2059" y="-175.8" font-family="Times,serif" font-size="14.00" fill="#000000">RecipeStartComponent</text>
</g>
<!-- RecipeStartComponent&#45;&gt;RecipesModule -->
<g id="edge15" class="edge">
<title>RecipeStartComponent&#45;&gt;RecipesModule</title>
<path fill="none" stroke="#000000" d="M2117.5699,-198.2228C2117.5699,-198.2228 2117.5699,-219.7269 2117.5699,-219.7269"/>
<polygon fill="#000000" stroke="#000000" points="2114.07,-219.7269 2117.5699,-229.7269 2121.07,-219.727 2114.07,-219.7269"/>
</g>
<!-- RecipesComponent -->
<g id="node17" class="node">
<title>RecipesComponent</title>
<polygon fill="#ffffb3" stroke="#000000" points="1967.6485,-198 1842.3515,-198 1842.3515,-162 1967.6485,-162 1967.6485,-198"/>
<text text-anchor="middle" x="1905" y="-175.8" font-family="Times,serif" font-size="14.00" fill="#000000">RecipesComponent</text>
</g>
<!-- RecipesComponent&#45;&gt;RecipesModule -->
<g id="edge16" class="edge">
<title>RecipesComponent&#45;&gt;RecipesModule</title>
<path fill="none" stroke="#000000" d="M1905,-198.2667C1905,-216.5552 1905,-242 1905,-242 1905,-242 2077.8459,-242 2077.8459,-242"/>
<polygon fill="#000000" stroke="#000000" points="2077.8459,-245.5001 2087.8459,-242 2077.8458,-238.5001 2077.8459,-245.5001"/>
</g>
<!-- RecipesRoutingModule -->
<g id="node19" class="node">
<title>RecipesRoutingModule</title>
<polygon fill="#8dd3c7" stroke="#000000" points="1818.4832,-198 1815.4832,-202 1794.4832,-202 1791.4832,-198 1669.5168,-198 1669.5168,-162 1818.4832,-162 1818.4832,-198"/>
<text text-anchor="middle" x="1744" y="-175.8" font-family="Times,serif" font-size="14.00" fill="#000000">RecipesRoutingModule</text>
</g>
<!-- RecipesRoutingModule&#45;&gt;RecipesModule -->
<g id="edge17" class="edge">
<title>RecipesRoutingModule&#45;&gt;RecipesModule</title>
<path fill="none" stroke="#000000" d="M1744,-198.2921C1744,-220.2057 1744,-254 1744,-254 1744,-254 2077.8227,-254 2077.8227,-254"/>
<polygon fill="#000000" stroke="#000000" points="2077.8227,-257.5001 2087.8227,-254 2077.8227,-250.5001 2077.8227,-257.5001"/>
</g>
<!-- AlertComponent -->
<g id="node20" class="node">
<title>AlertComponent</title>
<polygon fill="#ffffb3" stroke="#000000" points="550.0954,-266 439.9046,-266 439.9046,-230 550.0954,-230 550.0954,-266"/>
<text text-anchor="middle" x="495" y="-243.8" font-family="Times,serif" font-size="14.00" fill="#000000">AlertComponent</text>
</g>
<!-- AlertComponent&#45;&gt;SharedModule -->
<g id="edge19" class="edge">
<title>AlertComponent&#45;&gt;SharedModule</title>
<path fill="none" stroke="#000000" d="M495,-229.7333C495,-211.4448 495,-186 495,-186 495,-186 849.4731,-186 849.4731,-186"/>
<polygon fill="#000000" stroke="#000000" points="849.4732,-189.5001 859.4731,-186 849.4731,-182.5001 849.4732,-189.5001"/>
</g>
<!-- DropdownDirective -->
<g id="node21" class="node">
<title>DropdownDirective</title>
<polygon fill="#ffffb3" stroke="#000000" points="819.9566,-266 692.0434,-266 692.0434,-230 819.9566,-230 819.9566,-266"/>
<text text-anchor="middle" x="756" y="-243.8" font-family="Times,serif" font-size="14.00" fill="#000000">DropdownDirective</text>
</g>
<!-- DropdownDirective&#45;&gt;SharedModule -->
<g id="edge20" class="edge">
<title>DropdownDirective&#45;&gt;SharedModule</title>
<path fill="none" stroke="#000000" d="M820.0443,-239C868.0164,-239 925.4037,-239 925.4037,-239 925.4037,-239 925.4037,-208.0225 925.4037,-208.0225"/>
<polygon fill="#000000" stroke="#000000" points="928.9038,-208.0225 925.4037,-198.0225 921.9038,-208.0226 928.9038,-208.0225"/>
</g>
<!-- LoadingSpinner -->
<g id="node22" class="node">
<title>LoadingSpinner</title>
<polygon fill="#ffffb3" stroke="#000000" points="674.2064,-266 567.7936,-266 567.7936,-230 674.2064,-230 674.2064,-266"/>
<text text-anchor="middle" x="621" y="-243.8" font-family="Times,serif" font-size="14.00" fill="#000000">LoadingSpinner</text>
</g>
<!-- LoadingSpinner&#45;&gt;SharedModule -->
<g id="edge21" class="edge">
<title>LoadingSpinner&#45;&gt;SharedModule</title>
<path fill="none" stroke="#000000" d="M621,-229.973C621,-213.6024 621,-192 621,-192 621,-192 849.491,-192 849.491,-192"/>
<polygon fill="#000000" stroke="#000000" points="849.4911,-195.5001 859.491,-192 849.491,-188.5001 849.4911,-195.5001"/>
</g>
<!-- ShoppingEditComponent -->
<g id="node26" class="node">
<title>ShoppingEditComponent</title>
<polygon fill="#ffffb3" stroke="#000000" points="3163.3398,-198 3004.6602,-198 3004.6602,-162 3163.3398,-162 3163.3398,-198"/>
<text text-anchor="middle" x="3084" y="-175.8" font-family="Times,serif" font-size="14.00" fill="#000000">ShoppingEditComponent</text>
</g>
<!-- ShoppingEditComponent&#45;&gt;ShoppingListModule -->
<g id="edge25" class="edge">
<title>ShoppingEditComponent&#45;&gt;ShoppingListModule</title>
<path fill="none" stroke="#000000" d="M3084,-198.2228C3084,-218.3652 3084,-248 3084,-248 3084,-248 2985.5428,-248 2985.5428,-248"/>
<polygon fill="#000000" stroke="#000000" points="2985.5429,-244.5001 2975.5428,-248 2985.5428,-251.5001 2985.5429,-244.5001"/>
</g>
<!-- ShoppingListComponent -->
<g id="node27" class="node">
<title>ShoppingListComponent</title>
<polygon fill="#ffffb3" stroke="#000000" points="2986.2841,-198 2829.7159,-198 2829.7159,-162 2986.2841,-162 2986.2841,-198"/>
<text text-anchor="middle" x="2908" y="-175.8" font-family="Times,serif" font-size="14.00" fill="#000000">ShoppingListComponent</text>
</g>
<!-- ShoppingListComponent&#45;&gt;ShoppingListModule -->
<g id="edge26" class="edge">
<title>ShoppingListComponent&#45;&gt;ShoppingListModule</title>
<path fill="none" stroke="#000000" d="M2930.5002,-198.2228C2930.5002,-198.2228 2930.5002,-219.7269 2930.5002,-219.7269"/>
<polygon fill="#000000" stroke="#000000" points="2927.0003,-219.7269 2930.5002,-229.7269 2934.0003,-219.727 2927.0003,-219.7269"/>
</g>
</g>
</svg>
